<?xml version="1.0" encoding="UTF-8"?>
<svg xmlns="http://www.w3.org/2000/svg" xmlns:xlink="http://www.w3.org/1999/xlink" version="1.1" viewBox="0 0 500 500">
  <defs>
    <style>
      .cls-1 {
        fill: url(#linear-gradient);
      }
    </style>
    <linearGradient id="linear-gradient" x1="9" y1="264.5" x2="488" y2="264.5" gradientUnits="userSpaceOnUse">
      <stop offset="0" stop-color="#6067b0"/>
      <stop offset=".2" stop-color="#6a67af"/>
      <stop offset="1" stop-color="#8b69ae"/>
    </linearGradient>
  </defs>
  <!-- Generator: Adobe Illustrator 28.6.0, SVG Export Plug-In . SVG Version: 1.2.0 Build 709)  -->
  <g>
    <g id="Layer_1">
      <path class="cls-1" d="M361.3,278.3c-16.1,13.8-34.5,20.7-55.3,20.7s-39.1-6.9-55.3-20.7c-16.1-13.8-23-32.2-23-53s6.9-39.1,23-53c16.1-13.8,34.5-20.7,55.3-20.7s39.1,6.9,55.3,20.7c16.1,13.8,23,32.2,23,53s-6.9,39.1-23,53ZM469.6,174.6c-11.5-27.6-29.9-50.7-50.7-69.1-20.7-18.4-48.4-34.5-76-43.8-29.9-9.2-62.2-16.1-94.4-16.1s-64.5,4.6-94.4,16.1c-29.9,9.2-55.3,25.3-76,43.8-20.7,18.4-39.1,41.5-50.7,69.1-11.5,27.6-18.4,57.6-18.4,89.8s6.9,62.2,18.4,89.8c11.5,27.6,29.9,50.7,50.7,69.1,20.7,18.4,48.4,34.5,76,43.8,29.9,9.2,62.2,16.1,94.4,16.1s64.5-4.6,94.4-16.1c29.9-9.2,55.3-25.3,76-43.8,20.7-18.4,39.1-41.5,50.7-69.1,11.5-27.6,18.4-57.6,18.4-89.8s-6.9-62.2-18.4-89.8Z"/>
    </g>
  </g>
</svg>