<svg width="132" height="29" viewBox="0 0 132 29" fill="none" xmlns="http://www.w3.org/2000/svg">
<g clip-path="url(#clip0_47_804)">
<path d="M20.1849 15.5458C19.639 14.3796 18.8957 13.3819 17.9477 12.5494C17.0033 11.7169 15.8865 11.077 14.6045 10.6298C13.3225 10.1826 11.9543 9.95898 10.5036 9.95898C9.05284 9.95898 7.68109 10.1826 6.39911 10.6298C5.11354 11.077 4.00034 11.7169 3.05592 12.5494C2.1079 13.3819 1.36098 14.3796 0.818742 15.5458C0.272914 16.7155 0 18.0193 0 19.4607C0 20.9021 0.272914 22.206 0.818742 23.3722C1.36098 24.5384 2.1079 25.5395 3.05592 26.372C4.00034 27.2011 5.11354 27.8409 6.39911 28.2882C7.68109 28.7354 9.04925 28.959 10.5036 28.959C11.9579 28.959 13.3225 28.7354 14.6045 28.2882C15.8865 27.8409 17.0033 27.2011 17.9477 26.372C18.8957 25.5395 19.639 24.5384 20.1849 23.3722C20.7307 22.206 21 20.9021 21 19.4607C21 18.0193 20.7307 16.7155 20.1849 15.5458ZM15.5381 20.0077C14.881 20.6407 14.0802 20.9572 13.1465 20.9572C12.2129 20.9572 11.4193 20.6407 10.755 20.0077C10.0978 19.3747 9.76385 18.611 9.76385 17.7165C9.76385 16.8221 10.0978 16.0618 10.755 15.4254C11.4193 14.7924 12.2129 14.4759 13.1465 14.4759C14.0802 14.4759 14.881 14.7924 15.5381 15.4254C16.2025 16.0618 16.5328 16.8221 16.5328 17.7165C16.5328 18.611 16.2025 19.3747 15.5381 20.0077Z" fill="url(#paint0_linear_47_804)"/>
<path d="M35.693 10.7281V19.552C35.693 20.1344 35.6546 20.6933 35.5814 21.2286C35.5047 21.7639 35.3477 22.2453 35.1071 22.6695C34.87 23.0937 34.5247 23.4337 34.0713 23.6896C33.618 23.9454 33.0251 24.07 32.2963 24.07C31.5674 24.07 31.0025 23.9252 30.6154 23.6323C30.2213 23.3428 29.9318 22.9657 29.7435 22.5045C29.5587 22.0433 29.4401 21.5383 29.4053 20.9895C29.3669 20.4442 29.3495 19.9156 29.3495 19.4072V10.7281H23.686V20.498C23.686 21.6898 23.7627 22.7974 23.9266 23.8175C24.0905 24.8376 24.4183 25.7263 24.91 26.4805C25.4018 27.2312 26.0957 27.8237 26.9885 28.2479C27.8813 28.6721 29.0461 28.8842 30.4828 28.8842C31.1594 28.8842 31.7906 28.8001 32.3695 28.6317C32.9484 28.46 33.4645 28.2412 33.9179 27.9719C34.3713 27.7059 34.7549 27.4029 35.0722 27.0629C35.3826 26.7229 35.6407 26.3795 35.8429 26.0428H35.9196V28.4466H41.3599V10.7281H35.693Z" fill="#1D1D1D"/>
<path d="M57.8622 15.1046V10.728H52.8752V5.47949H47.2117V10.728H43.5884V15.1046H47.2117V23.5245C47.2117 24.4974 47.3826 25.3256 47.7244 26.0056C48.0627 26.6857 48.5335 27.2378 49.1403 27.6654C49.7436 28.0896 50.448 28.3993 51.2536 28.5946C52.0592 28.7898 52.9415 28.8841 53.897 28.8841C54.5492 28.8841 55.2187 28.8471 55.8988 28.7764C56.5788 28.7023 57.2309 28.5575 57.8622 28.3387V23.7803C57.6111 23.9992 57.2414 24.1405 56.7497 24.2011C56.258 24.2617 55.8604 24.292 55.5605 24.292C54.9572 24.292 54.469 24.2112 54.1063 24.053C53.7401 23.8948 53.4681 23.6692 53.2937 23.3797C53.1159 23.0868 53.0043 22.74 52.952 22.3394C52.9031 21.9388 52.8752 21.4944 52.8752 21.0096V15.1046H57.8622Z" fill="#1D1D1D"/>
<path d="M60.809 0.884155V28.4465H66.4724V0.884155H60.809Z" fill="#1D1D1D"/>
<path d="M70.6258 10.7281V28.4465H76.2928V10.7281H70.6258ZM75.7837 3.23741C75.142 2.61459 74.3643 2.30823 73.4576 2.30823C72.5509 2.30823 71.7802 2.61459 71.135 3.23741C70.4968 3.85686 70.1725 4.60425 70.1725 5.47956C70.1725 6.35488 70.4968 7.10226 71.135 7.72172C71.7802 8.34117 72.5544 8.6509 73.4576 8.6509C74.3608 8.6509 75.142 8.34117 75.7837 7.72172C76.4253 7.10226 76.7462 6.35488 76.7462 5.47956C76.7462 4.60425 76.4253 3.85686 75.7837 3.23741Z" fill="#1D1D1D"/>
<path d="M98.612 19.589C98.612 18.1783 98.4132 16.9024 98.0087 15.7578C97.6041 14.6165 97.0322 13.6402 96.2894 12.8255C95.5466 12.0107 94.6399 11.3845 93.5727 10.9469C92.5021 10.5092 91.3094 10.2904 90.0017 10.2904C88.5893 10.2904 87.2641 10.5092 86.0156 10.9469C84.7706 11.3845 83.6896 12.0107 82.7689 12.8255C81.8482 13.6402 81.1263 14.6165 80.5963 15.7578C80.0697 16.9024 79.8046 18.1783 79.8046 19.589C79.8046 20.9996 80.0697 22.2755 80.5963 23.4168C81.1263 24.558 81.8482 25.5377 82.7689 26.3524C83.6896 27.1638 84.7706 27.79 86.0156 28.2276C87.2641 28.6653 88.5893 28.8841 90.0017 28.8841C91.4873 28.8841 92.9206 28.5811 94.3051 27.9718C95.6931 27.3658 96.8369 26.5006 97.7436 25.3829L93.7785 22.5785C93.3007 23.208 92.7393 23.7265 92.0976 24.1271C91.4559 24.5277 90.6713 24.7297 89.7366 24.7297C88.6277 24.7297 87.7 24.4167 86.9433 23.8006C86.1865 23.1777 85.6948 22.3462 85.4716 21.3025H98.612V19.589ZM85.4716 17.5825C85.4925 17.1448 85.6006 16.7273 85.7924 16.3267C85.9807 15.9227 86.2458 15.5726 86.5841 15.2662C86.9223 14.9632 87.3338 14.7175 87.8116 14.5189C88.2894 14.3236 88.8439 14.2293 89.4751 14.2293C90.5074 14.2293 91.3478 14.5559 92.0034 15.2124C92.6591 15.8689 92.9729 16.66 92.945 17.5825H85.4716Z" fill="#1D1D1D"/>
<path d="M114.061 10.3274C113.733 10.3039 113.405 10.2904 113.078 10.2904C111.815 10.2904 110.776 10.5631 109.942 11.1119C109.112 11.6572 108.394 12.4787 107.791 13.5695H107.714V10.7281H102.051V28.4465H107.714V21.0467C107.714 20.1714 107.766 19.3701 107.864 18.6396C107.965 17.909 108.185 17.2862 108.527 16.7644C108.865 16.2392 109.35 15.8318 109.981 15.5423C110.612 15.2494 111.466 15.1046 112.551 15.1046C112.976 15.1046 113.384 15.1349 113.775 15.1955C114.166 15.2561 114.563 15.347 114.968 15.4682V10.4722C114.689 10.3981 114.385 10.351 114.061 10.3274Z" fill="#1D1D1D"/>
<path d="M131.299 20.3734C130.832 19.7034 130.242 19.1749 129.524 18.7843C128.806 18.3972 128.038 18.111 127.222 17.9292C126.403 17.7474 125.636 17.5757 124.917 17.4175C124.199 17.2593 123.609 17.0808 123.142 16.8721C122.675 16.6634 122.441 16.3435 122.441 15.9059C122.441 15.3706 122.671 14.9935 123.125 14.7747C123.578 14.5559 124.042 14.4448 124.52 14.4448C125.88 14.4448 126.975 14.9464 127.805 15.9429L131.282 12.6235C130.427 11.7481 129.381 11.1422 128.146 10.8021C126.912 10.4621 125.691 10.2904 124.485 10.2904C123.526 10.2904 122.581 10.4049 121.653 10.6372C120.718 10.8695 119.895 11.2263 119.177 11.7111C118.459 12.1993 117.88 12.8187 117.437 13.5695C116.997 14.3236 116.778 15.2258 116.778 16.2695C116.778 17.3872 117.011 18.2827 117.479 18.9493C117.942 19.6192 118.535 20.1343 119.25 20.4979C119.969 20.8649 120.736 21.1376 121.555 21.3194C122.375 21.5012 123.142 21.6729 123.86 21.8277C124.575 21.9893 125.168 22.1812 125.636 22.4135C126.099 22.6458 126.333 22.9926 126.333 23.4538C126.333 23.9386 126.068 24.2719 125.538 24.4537C125.011 24.6388 124.418 24.7297 123.763 24.7297C122.908 24.7297 122.162 24.5648 121.517 24.2382C120.875 23.9083 120.293 23.4302 119.763 22.7973L116.324 26.4804C117.231 27.3759 118.34 28.0054 119.648 28.3556C120.959 28.7057 122.256 28.8841 123.54 28.8841C124.52 28.8841 125.517 28.7932 126.521 28.6114C127.529 28.4263 128.436 28.1132 129.241 27.6654C130.047 27.2143 130.706 26.6184 131.226 25.8778C131.738 25.1371 132 24.1945 132 23.0498C132 21.9052 131.766 21.04 131.299 20.3734Z" fill="#1D1D1D"/>
</g>
<defs>
<linearGradient id="paint0_linear_47_804" x1="10.5" y1="9.95898" x2="10.5" y2="28.959" gradientUnits="userSpaceOnUse">
<stop stop-color="#6366F1"/>
<stop offset="1" stop-color="#AA63F1"/>
</linearGradient>
<clipPath id="clip0_47_804">
<rect width="132" height="28" fill="white" transform="translate(0 0.958984)"/>
</clipPath>
</defs>
</svg>
